# xmcd
#
# Track frame offsets: 
#        150
#        16959
#        31693
#        49336
#        71216
#        85980
#        100476
#        123441
#        135882
#        145957
#        158871
#
# Disc length: 2296 seconds
#
# Revision: 0
# Processed by: cddbd v1.5.2PL0 Copyright (c) Steve Scherf et al.
# Submitted via: ExactAudioCopyFreeDBPlugin 1.0
#
DISCID=9308f60b
DTITLE=The Sinners - Cast The First Stone
DYEAR=1900
DGENRE=Blues
TTITLE0=Fortune Teller
TTITLE1=Broken
TTITLE2=Bring It On Home
TTITLE3=Wand Dang Do
TTITLE4=Ya Know Ya
TTITLE5=Marie's The Name
TTITLE6=Baby Blues
TTITLE7=Hidden Charms
TTITLE8=Bamalama
TTITLE9=The Truth
TTITLE10=Rocket 88 (Live)
EXTD=
EXTT0=
EXTT1=
EXTT2=
EXTT3=
EXTT4=
EXTT5=
EXTT6=
EXTT7=
EXTT8=
EXTT9=
EXTT10=
PLAYORDER=
